<?xml version="1.0" encoding="UTF-8" standalone="no"?>
<!-- Created with Inkscape (http://www.inkscape.org/) -->

<svg
   xmlns:dc="http://purl.org/dc/elements/1.1/"
   xmlns:cc="http://creativecommons.org/ns#"
   xmlns:rdf="http://www.w3.org/1999/02/22-rdf-syntax-ns#"
   xmlns:svg="http://www.w3.org/2000/svg"
   xmlns="http://www.w3.org/2000/svg"
   xmlns:xlink="http://www.w3.org/1999/xlink"
   xmlns:sodipodi="http://sodipodi.sourceforge.net/DTD/sodipodi-0.dtd"
   xmlns:inkscape="http://www.inkscape.org/namespaces/inkscape"
   id="svg3032"
   version="1.1"
   inkscape:version="0.48.2 r9819"
   width="300"
   height="212"
   sodipodi:docname="appareil-photo-seul.png">
  <metadata
     id="metadata3038">
    <rdf:RDF>
      <cc:Work
         rdf:about="">
        <dc:format>image/svg+xml</dc:format>
        <dc:type
           rdf:resource="http://purl.org/dc/dcmitype/StillImage" />
        <dc:title></dc:title>
      </cc:Work>
    </rdf:RDF>
  </metadata>
  <defs
     id="defs3036" />
  <sodipodi:namedview
     pagecolor="#ffffff"
     bordercolor="#666666"
     borderopacity="1"
     objecttolerance="10"
     gridtolerance="10"
     guidetolerance="10"
     inkscape:pageopacity="0"
     inkscape:pageshadow="2"
     inkscape:window-width="1218"
     inkscape:window-height="778"
     id="namedview3034"
     showgrid="false"
     inkscape:zoom="1.27"
     inkscape:cx="301.75547"
     inkscape:cy="61.755305"
     inkscape:window-x="54"
     inkscape:window-y="-8"
     inkscape:window-maximized="0"
     inkscape:current-layer="svg3032" />
  <image
     width="300"
     height="212"
     xlink:href="file:///C:/Users/loclamor/workspace-php/voyage/style/appareil-photo-seul.png"
     id="image3040"
     x="-285.82678"
     y="-83.464569" />
  <g
     id="g3877">
    <path
       id="path3875"
       d="m 522.52335,192.38587 c -9.88502,-2.60069 -16.07259,-12.42389 -27.26641,-12.08436 -46.84584,-9.51992 -93.51701,-20.07149 -140.65392,-28.05282 -10.58754,-2.2412 -23.58816,-1.69626 -31.57926,-10.00606 -3.2114,-11.26978 0.47903,-23.35155 1.35289,-34.8353 4.13015,-26.013073 7.79031,-52.143881 13.02809,-77.956205 7.53551,-9.451294 20.60563,-7.909806 31.26692,-8.43349 3.73208,-8.507172 11.73789,-13.4673985 21.25762,-9.178751 9.72341,1.461981 20.54743,4.515537 22.63793,14.59746 9.33822,5.36 19.84549,4.349458 29.19899,-0.113677 9.8271,-4.564824 15.4767,-17.5082315 27.22822,-17.1638245 16.82706,1.6722555 33.66702,4.9261725 49.79159,10.0152935 13.67391,6.160839 15.1445,23.175621 23.94257,33.84232 5.82001,10.372942 18.21924,11.374761 28.22301,15.134896 14.73445,2.9053 9.72507,18.867904 7.52465,29.009356 -6.03183,28.523062 -11.49793,57.292132 -20.31111,85.110772 -4.29505,11.19614 -17.7633,13.16955 -28.59714,11.20009 -2.36156,-0.25911 -4.72605,-0.55582 -7.04464,-1.0857 z"
       style="fill:#000000;stroke:#000000;stroke-width:1;stroke-miterlimit:4;stroke-opacity:1;stroke-dasharray:none;fill-opacity:1" />
    <path
       id="path3873"
       d="m 461.73719,165.14563 c -11.2592,-2.42028 -22.5529,-4.70179 -33.75,-7.3963 -7.62604,-12.36229 19.65668,0.57257 15.93637,-4.52384 -17.90486,-11.18249 -28.00901,-32.80478 -25.54767,-53.723426 2.18051,-31.405339 35.84143,-55.692328 66.40546,-48.452366 28.52316,4.723368 49.43806,34.316086 44.76844,62.774042 -3.23069,24.52234 -24.72816,45.60704 -49.52419,47.53949 3.75744,2.77162 27.69925,4.10475 14.69755,10.2749 -11.051,-1.86183 -22.01317,-4.22332 -32.98596,-6.4925 z"
       style="fill:#ffffff;stroke:#000000;stroke-width:1;stroke-miterlimit:4;stroke-opacity:1;stroke-dasharray:none;fill-opacity:1" />
    <path
       id="path3871"
       d="m 494.8622,168.04905 c -6.4573,-3.2809 -20.61623,-1.92353 -22.63133,-7.65724 6.11519,-1.87629 -13.58505,-1.17249 -17.02972,-4.41998 -2.82299,6.79088 -18.2166,-2.43752 -26.64384,-1.43731 8.71755,4.18741 20.19381,4.83325 29.9397,7.50549 12.43696,2.22898 25.01318,6.07611 37.49356,6.64452 l -1.1284,-0.63548 3e-5,0 z"
       style="fill:#000000;stroke:#000000;stroke-width:1;stroke-miterlimit:4;stroke-opacity:1;stroke-dasharray:none;fill-opacity:1" />
    <path
       id="path3867"
       d="m 461.38644,148.4599 c -26.01668,-6.48482 -39.76452,-39.23111 -27.2438,-62.667324 10.88468,-22.103557 41.23999,-31.679092 62.39398,-18.321137 13.51749,8.068343 23.17308,23.696927 21.28801,39.732541 1.72776,25.99028 -25.48213,46.41561 -50.1477,42.49076 -2.12187,-0.26649 -4.22525,-0.67977 -6.29049,-1.23484 z"
       style="fill:#000000;stroke:#000000;stroke-width:1;stroke-miterlimit:4;stroke-opacity:1;stroke-dasharray:none;fill-opacity:1" />
    <path
       id="path3865"
       d="m 485.55381,146.08553 c 18.088,-5.67329 32.46938,-23.9079 30.26019,-43.3367 -0.98336,-18.473713 -16.40246,-34.948271 -34.5048,-38.264029 -28.03157,-6.302613 -57.13229,24.233896 -47.94121,51.966529 5.89984,21.81752 30.16667,36.8665 52.18582,29.6342 z"
       style="fill:#ffffff;stroke:#000000;stroke-width:1;stroke-miterlimit:4;stroke-opacity:1;stroke-dasharray:none;fill-opacity:1" />
    <path
       id="path3863"
       d="m 462.78138,129.21599 c -18.76925,-7.76274 -19.11194,-38.637223 -0.23991,-46.431156 15.14441,-7.981678 36.9009,3.023974 36.70849,20.861316 1.72914,13.04197 -8.25326,27.03734 -21.92075,27.09137 -4.85417,0.14637 -10.03043,0.69926 -14.54783,-1.52153 z"
       style="fill:#000000;stroke:#000000;stroke-width:1;stroke-miterlimit:4;stroke-opacity:1;stroke-dasharray:none;fill-opacity:1" />
    <path
       id="path3861"
       d="m 485.97994,125.4959 c 13.17037,-7.25084 15.08623,-27.457531 3.27533,-36.875961 -12.09432,-12.533271 -35.342,-3.996443 -38.15838,12.688551 -4.25459,17.11518 15.26033,33.10827 31.21736,26.03061 1.27344,-0.50389 2.50099,-1.12295 3.66569,-1.8432 z"
       style="fill:#ffffff;stroke:#000000;stroke-width:1;stroke-miterlimit:4;stroke-opacity:1;stroke-dasharray:none;fill-opacity:1" />
    <path
       id="path3859"
       d="m 473.6122,123.35726 c -6.28232,-4.60189 12.55742,-3.24968 12.81481,-10.53513 8.04669,-12.49983 -9.95419,-28.551766 -20.93821,-18.005811 -3.31916,3.324474 -9.53246,13.781171 -7.08372,2.398275 2.41998,-13.501297 18.70172,-9.722826 27.6478,-5.944424 10.83251,5.706836 4.54626,19.05128 2.2287,27.94346 -3.02629,4.73691 -9.69293,4.99294 -14.66938,4.14363 z"
       style="fill:#000000;stroke:#000000;stroke-width:1;stroke-miterlimit:4;stroke-opacity:1;stroke-dasharray:none;fill-opacity:1" />
    <path
       id="path3857"
       d="m 489.96637,105.33382 c -1.98686,1.82063 1.35419,3.83163 0,0 z"
       style="fill:none;stroke:#ffffff;stroke-width:1;stroke-miterlimit:4;stroke-opacity:1;stroke-dasharray:none;fill-opacity:1" />
    <path
       id="path3855"
       d="m 473.5497,89.379878 c -6.14873,-1.003062 1.85756,1.934554 0,0 z"
       style="fill:none;stroke:#ffffff;stroke-width:1;stroke-miterlimit:4;stroke-opacity:1;stroke-dasharray:none;fill-opacity:1" />
    <path
       id="path3853"
       d="m 463.67511,120.96051 c -10.447,1.18755 -7.38128,-26.546169 -3.58678,-11.67869 -0.98799,5.30213 18.22335,15.12904 3.58678,11.67869 z"
       style="fill:#000000;stroke:#000000;stroke-width:1;stroke-miterlimit:4;stroke-opacity:1;stroke-dasharray:none;fill-opacity:1" />
    <path
       id="path3851"
       d="m 457.96637,106.33382 c -1.98686,1.82063 1.35419,3.83163 0,0 z"
       style="fill:none;stroke:#ffffff;stroke-width:1;stroke-miterlimit:4;stroke-opacity:1;stroke-dasharray:none;fill-opacity:1" />
    <path
       id="path3849"
       d="m 444.3622,150.68543 c -6.02722,-7.2088 -1.92276,0.67135 0,0 z"
       style="fill:none;stroke:#000000;stroke-width:1;stroke-miterlimit:4;stroke-opacity:1;stroke-dasharray:none;fill-opacity:1" />
    <path
       id="path3847"
       d="m 517.3622,138.13131 c -3.6837,2.31463 -15.8678,15.77918 -6.60483,7.01258 2.27258,-2.26618 4.64352,-4.46012 6.60483,-7.01258 z"
       style="fill:none;stroke:#000000;stroke-width:1;stroke-miterlimit:4;stroke-opacity:1;stroke-dasharray:none;fill-opacity:1" />
    <path
       id="path3845"
       d="m 440.3622,147.7712 c -0.90655,-1.1829 -12.91124,-12.64203 -7.30929,-6.87412 2.3728,2.18599 4.6869,5.90828 7.30929,6.87412 z"
       style="fill:none;stroke:#000000;stroke-width:1;stroke-miterlimit:4;stroke-opacity:1;stroke-dasharray:none;fill-opacity:1" />
    <path
       id="path3843"
       d="m 528.06793,103.81299 c -1.31895,0.32051 0.39944,9.61938 0,0 z"
       style="fill:none;stroke:#000000;stroke-width:1;stroke-miterlimit:4;stroke-opacity:1;stroke-dasharray:none;fill-opacity:1" />
    <path
       id="path3841"
       d="m 431.8622,73.062992 c 4.57087,-6.780062 -6.54199,6.488184 0,0 z"
       style="fill:none;stroke:#000000;stroke-width:1;stroke-miterlimit:4;stroke-opacity:1;stroke-dasharray:none;fill-opacity:1" />
    <path
       id="path3839"
       d="m 515.3622,70.759159 c -2.85883,-3.12909 -10.83699,-10.433525 -4.05383,-3.446167 1.17304,0.717112 2.74395,3.988084 4.05383,3.446167 z"
       style="fill:none;stroke:#000000;stroke-width:1;stroke-miterlimit:4;stroke-opacity:1;stroke-dasharray:none;fill-opacity:1" />
    <path
       id="path3837"
       d="m 436.3622,67.562992 c 5.92928,-7.557615 -8.30559,7.853473 0,0 z"
       style="fill:none;stroke:#000000;stroke-width:1;stroke-miterlimit:4;stroke-opacity:1;stroke-dasharray:none;fill-opacity:1" />
    <path
       id="path3835"
       d="m 441.3622,63.562992 c 5.63311,-6.623999 -6.94534,6.185353 0,0 z"
       style="fill:none;stroke:#000000;stroke-width:1;stroke-miterlimit:4;stroke-opacity:1;stroke-dasharray:none;fill-opacity:1" />
    <path
       id="path3833"
       d="m 507.3622,63.685437 c -6.02719,-7.20875 -1.92279,0.671305 0,0 z"
       style="fill:none;stroke:#000000;stroke-width:1;stroke-miterlimit:4;stroke-opacity:1;stroke-dasharray:none;fill-opacity:1" />
    <path
       id="path3831"
       d="m 536.69474,111.44776 c -5.59243,-10.53937 16.01414,-9.8534 8.51528,0.91134 -2.31034,2.39035 -6.87751,2.21631 -8.51528,-0.91134 z"
       style="fill:none;stroke:#000000;stroke-width:1;stroke-miterlimit:4;stroke-opacity:1;stroke-dasharray:none;fill-opacity:1" />
    <path
       id="path3829"
       d="m 544.3622,108.65025 c -6.51867,-11.674022 -8.27651,10.37967 0,0 z"
       style="fill:none;stroke:#000000;stroke-width:1;stroke-miterlimit:4;stroke-opacity:1;stroke-dasharray:none;fill-opacity:1" />
    <path
       id="path3827"
       d="m 539.0611,97.282772 c -8.89674,-11.500908 16.65129,-11.343304 8.37725,-0.22103 -2.11413,2.29134 -6.21505,2.64186 -8.37725,0.22103 z"
       style="fill:none;stroke:#000000;stroke-width:1;stroke-miterlimit:4;stroke-opacity:1;stroke-dasharray:none;fill-opacity:1" />
    <path
       id="path3825"
       d="m 545.35163,95.575727 c 2.91456,-10.696123 -12.06076,-0.14347 -1.07111,1.073111 l 1.07111,-1.073111 z"
       style="fill:none;stroke:#000000;stroke-width:1;stroke-miterlimit:4;stroke-opacity:1;stroke-dasharray:none;fill-opacity:1" />
    <path
       id="path3823"
       d="m 557.8622,85.429897 c -5.27922,-3.014656 -22.0955,-0.732465 -20.49906,-8.127084 11.48483,1.319778 22.98947,3.84704 34.13354,6.923197 3.83992,7.784979 -10.85314,0.639743 -13.63448,1.203887 z"
       style="fill:#ffffff;stroke:#000000;stroke-width:1;stroke-miterlimit:4;stroke-opacity:1;stroke-dasharray:none;fill-opacity:1" />
    <path
       id="path3821"
       d="m 392.8622,51.109544 c -14.08132,-3.230487 -28.43967,-5.482112 -42.34711,-9.331114 -0.95971,-8.045984 16.22075,1.037102 22.57911,0.694921 19.18873,4.438264 38.94602,7.086638 57.64118,13.274021 -4.89128,5.075932 -19.2515,-2.135972 -27.42607,-2.44532 -3.48358,-0.725074 -6.96556,-1.457761 -10.44711,-2.192508 z"
       style="fill:#ffffff;stroke:#000000;stroke-width:1;stroke-miterlimit:4;stroke-opacity:1;stroke-dasharray:none;fill-opacity:1" />
    <path
       id="path3819"
       d="m 488.3622,35.09695 c -7.55663,-1.705021 -29.97968,-3.702782 -18.36961,-14.65604 14.08708,0.930408 28.11194,4.189356 41.58225,8.397179 8.82359,10.577843 -9.84959,11.518706 -16.33234,7.738327 -2.29471,-0.487175 -4.58758,-0.98332 -6.8803,-1.479466 z"
       style="fill:#ffffff;stroke:#000000;stroke-width:1;stroke-miterlimit:4;stroke-opacity:1;stroke-dasharray:none;fill-opacity:1" />
  </g>
</svg>
