<?xml version="1.0" encoding="UTF-8" standalone="no"?>
<!-- Created with Inkscape (http://www.inkscape.org/) -->

<svg
   xmlns:dc="http://purl.org/dc/elements/1.1/"
   xmlns:cc="http://creativecommons.org/ns#"
   xmlns:rdf="http://www.w3.org/1999/02/22-rdf-syntax-ns#"
   xmlns:svg="http://www.w3.org/2000/svg"
   xmlns="http://www.w3.org/2000/svg"
   xmlns:xlink="http://www.w3.org/1999/xlink"
   xmlns:sodipodi="http://sodipodi.sourceforge.net/DTD/sodipodi-0.dtd"
   xmlns:inkscape="http://www.inkscape.org/namespaces/inkscape"
   width="200"
   height="200"
   id="svg3027"
   version="1.1"
   inkscape:version="0.48.2 r9819"
   inkscape:export-filename="C:\Users\loclamor\Desktop\bitmap.png"
   inkscape:export-xdpi="90"
   inkscape:export-ydpi="90"
   sodipodi:docname="logo.svg">
  <defs
     id="defs3029">
    <marker
       inkscape:stockid="Arrow1Lstart"
       orient="auto"
       refY="0.0"
       refX="0.0"
       id="Arrow1Lstart"
       style="overflow:visible">
      <path
         id="path4671"
         d="M 0.0,0.0 L 5.0,-5.0 L -12.5,0.0 L 5.0,5.0 L 0.0,0.0 z "
         style="fill-rule:evenodd;stroke:#000000;stroke-width:1.0pt;marker-start:none"
         transform="scale(0.8) translate(12.5,0)" />
    </marker>
    <marker
       inkscape:stockid="Arrow1Mstart"
       orient="auto"
       refY="0.0"
       refX="0.0"
       id="Arrow1Mstart"
       style="overflow:visible">
      <path
         id="path4677"
         d="M 0.0,0.0 L 5.0,-5.0 L -12.5,0.0 L 5.0,5.0 L 0.0,0.0 z "
         style="fill-rule:evenodd;stroke:#000000;stroke-width:1.0pt;marker-start:none"
         transform="scale(0.4) translate(10,0)" />
    </marker>
    <linearGradient
       id="linearGradient3811">
      <stop
         style="stop-color:#ffffff;stop-opacity:1;"
         offset="0"
         id="stop3813" />
      <stop
         style="stop-color:#009fff;stop-opacity:1;"
         offset="1"
         id="stop3815" />
    </linearGradient>
    <radialGradient
       inkscape:collect="always"
       xlink:href="#linearGradient3811"
       id="radialGradient3817"
       cx="100"
       cy="-1.4877388e-007"
       fx="100"
       fy="-1.4877388e-007"
       r="100.5"
       gradientUnits="userSpaceOnUse"
       gradientTransform="matrix(2.9864961,0,0,1.9914744,-198.64961,0)" />
    <filter
       inkscape:collect="always"
       id="filter4440">
      <feGaussianBlur
         inkscape:collect="always"
         stdDeviation="0.51190323"
         id="feGaussianBlur4442" />
    </filter>
    <filter
       inkscape:collect="always"
       id="filter4444">
      <feGaussianBlur
         inkscape:collect="always"
         stdDeviation="0.49341767"
         id="feGaussianBlur4446" />
    </filter>
    <radialGradient
       inkscape:collect="always"
       xlink:href="#linearGradient3811"
       id="radialGradient4484"
       gradientUnits="userSpaceOnUse"
       gradientTransform="matrix(2.9864961,0,0,1.9914744,-198.64961,0)"
       cx="100"
       cy="-1.4877388e-007"
       fx="100"
       fy="-1.4877388e-007"
       r="100.5" />
    <filter
       inkscape:collect="always"
       id="filter4652">
      <feGaussianBlur
         inkscape:collect="always"
         stdDeviation="0.59150568"
         id="feGaussianBlur4654" />
    </filter>
  </defs>
  <sodipodi:namedview
     id="base"
     pagecolor="#ffffff"
     bordercolor="#666666"
     borderopacity="1.0"
     inkscape:pageopacity="0.0"
     inkscape:pageshadow="2"
     inkscape:zoom="1"
     inkscape:cx="116.00509"
     inkscape:cy="104.00378"
     inkscape:document-units="px"
     inkscape:current-layer="layer4"
     showgrid="false"
     inkscape:snap-grids="false"
     inkscape:snap-global="true"
     inkscape:snap-nodes="false"
     inkscape:window-width="1218"
     inkscape:window-height="778"
     inkscape:window-x="54"
     inkscape:window-y="-8"
     inkscape:window-maximized="1">
    <inkscape:grid
       type="xygrid"
       id="grid3037"
       empspacing="5"
       visible="true"
       enabled="true"
       snapvisiblegridlinesonly="true" />
  </sodipodi:namedview>
  <metadata
     id="metadata3032">
    <rdf:RDF>
      <cc:Work
         rdf:about="">
        <dc:format>image/svg+xml</dc:format>
        <dc:type
           rdf:resource="http://purl.org/dc/dcmitype/StillImage" />
        <dc:title />
      </cc:Work>
    </rdf:RDF>
  </metadata>
  <g
     inkscape:label="Calque 1"
     inkscape:groupmode="layer"
     id="layer1"
     transform="translate(0,-852.36218)" />
  <g
     inkscape:groupmode="layer"
     id="layer2"
     inkscape:label="équateur" />
  <g
     inkscape:groupmode="layer"
     id="layer3"
     inkscape:label="méridiens" />
  <g
     inkscape:groupmode="layer"
     id="layer4"
     inkscape:label="Texte">
    <g
       id="g4458"
       transform="matrix(0.8660254,-0.5,0.5,0.8660254,-37.617639,59.609061)">
      <path
         d="M 200,100 C 200,155.22847 155.22847,200 100,200 44.771525,200 0,155.22847 0,100 0,44.771525 44.771525,0 100,0 155.22847,0 200,44.771525 200,100 z"
         sodipodi:ry="100"
         sodipodi:rx="100"
         sodipodi:cy="100"
         sodipodi:cx="100"
         id="path3039"
         style="fill:url(#radialGradient4484);fill-opacity:1;fill-rule:evenodd;stroke:#ffffff;stroke-width:1px;stroke-linecap:butt;stroke-linejoin:miter;stroke-opacity:1"
         sodipodi:type="arc" />
      <path
         transform="translate(0,-15)"
         id="path3832"
         d="m 200,115 c 0,8.28427 -44.77153,15 -100,15 -55.228475,0 -100,-6.71573 -100,-15 0,0 0,0 0,0"
         style="fill:#000000;fill-opacity:0;stroke:#ffffff;stroke-opacity:1"
         inkscape:connector-curvature="0" />
      <path
         d="m 125,100 c 0,55.22847 -11.19288,100 -25,100 C 86.192881,200 75,155.22847 75,100 75,44.771525 86.192881,0 100,0 c 13.80712,0 25,44.771525 25,100 z"
         sodipodi:ry="100"
         sodipodi:rx="25"
         sodipodi:cy="100"
         sodipodi:cx="100"
         id="path3835"
         style="fill:#000000;fill-opacity:0;stroke:#ffffff;stroke-opacity:1"
         sodipodi:type="arc" />
      <path
         transform="matrix(1.1666666,0,0,1,-16.666665,0)"
         d="m 160,100 c 0,55.22847 -26.86292,100 -60,100 C 66.862915,200 40,155.22847 40,100 40,44.771525 66.862915,0 100,0 c 33.13708,0 60,44.771525 60,100 z"
         sodipodi:ry="100"
         sodipodi:rx="60"
         sodipodi:cy="100"
         sodipodi:cx="100"
         id="path3837"
         style="fill:#000000;fill-opacity:0;stroke:#ffffff;stroke-opacity:1"
         sodipodi:type="arc" />
      <flowRoot
         style="font-size:40px;font-style:normal;font-weight:normal;line-height:125%;letter-spacing:0px;word-spacing:0px;fill:#000000;fill-opacity:1;stroke:none;font-family:Sans"
         id="flowRoot3839"
         xml:space="preserve"><flowRegion
           id="flowRegion3841"><rect
             y="48.57143"
             x="8.2142859"
             height="123.21429"
             width="153.57143"
             id="rect3843" /></flowRegion><flowPara
           id="flowPara3845" /></flowRoot>      <text
         sodipodi:linespacing="125%"
         id="text3848"
         y="61.42857"
         x="2.1428571"
         style="font-size:20px;font-style:normal;font-variant:normal;font-weight:normal;font-stretch:normal;line-height:125%;letter-spacing:0px;word-spacing:0px;fill:#000000;fill-opacity:1;stroke:none;font-family:Harlow Solid Italic;-inkscape-font-specification:Harlow Solid Italic"
         xml:space="preserve"><tspan
           id="tspan3852"
           style="font-size:20px;font-family:Harlow Solid Italic;-inkscape-font-specification:Harlow Solid Italic"
           y="61.42857"
           x="2.1428571"
           sodipodi:role="line" /></text>
      <text
         sodipodi:linespacing="125%"
         id="text3856"
         y="45.714287"
         x="5"
         style="font-size:40px;font-style:normal;font-variant:normal;font-weight:normal;font-stretch:normal;line-height:125%;letter-spacing:0px;word-spacing:0px;fill:#000000;fill-opacity:1;stroke:none;font-family:Matura MT Script Capitals;-inkscape-font-specification:Matura MT Script Capitals"
         xml:space="preserve"><tspan
           style="font-size:40px;font-style:normal;font-variant:normal;font-weight:normal;font-stretch:normal;font-family:Matura MT Script Capitals;-inkscape-font-specification:Matura MT Script Capitals"
           y="45.714287"
           x="5"
           id="tspan3858"
           sodipodi:role="line" /></text>
      <path
         transform="matrix(1,-0.07657792,0,1,0,0)"
         d="m 51.34375,123.1875 -3.8125,6.15625 24.96875,0 c 2.034476,3e-5 3.437469,0.15823 4.21875,0.5 1.30205,0.56969 1.893847,1.77086 1.8125,3.59375 -0.130242,2.83205 -1.879589,5.30536 -5.28125,7.4375 -2.441432,1.51369 -5.248721,2.62762 -8.40625,3.34375 l 4.21875,-11.75 -8.84375,0 -8.90625,25.0625 8.90625,0 2.96875,-8.5 c 6.136043,-1.20442 11.431611,-2.95376 15.875,-5.28125 6.65686,-3.4505 9.968706,-7.58852 9.96875,-12.40625 -4.4e-5,-3.2389 -1.374392,-5.52666 -4.125,-6.8125 -1.936887,-0.91142 -4.7279,-1.34372 -8.40625,-1.34375 l -25.15625,0 z m 42.71875,4.84375 -10.46875,29.5 5.03125,0 c 1.269526,0 2.485671,-0.50716 3.625,-1.5 l 9.25,-7.59375 -1.75,5.1875 c -0.244155,0.7487 -0.375014,1.38542 -0.375,1.90625 -1.4e-5,1.33464 0.91079,2 2.75,2 l 10.40625,0 c 1.13929,0 2.19463,-0.23047 3.1875,-0.71875 1.34693,-0.66556 2.21954,-1.71848 2.65625,-3.09375 0.44437,0.70226 0.93636,1.37913 1.6875,1.9375 2.06705,1.54622 5.03385,2.28255 8.875,2.25 3.30402,-0.0163 5.99543,-0.73763 8.0625,-2.21875 2.16469,-1.54622 3.36586,-3.68815 3.59375,-6.40625 0.0651,-0.69986 -0.0957,-1.51659 -0.4375,-2.46875 -0.34182,-0.95214 -0.77541,-1.61066 -1.3125,-1.96875 l 7.59375,0 4,0 -3.09375,8.78125 c -0.17904,0.48828 -0.28125,0.95183 -0.28125,1.375 0,1.69271 1.21615,2.53125 3.625,2.53125 l 12.4375,0 c 3.24331,0 5.26577,-1.2719 6.0625,-3.78125 0.44192,0.68778 0.918,1.35746 1.65625,1.90625 2.06705,1.54622 5.03385,2.28255 8.875,2.25 3.30402,-0.0163 5.99543,-0.73763 8.0625,-2.21875 2.16469,-1.54622 3.36586,-3.68815 3.59375,-6.40625 0.0651,-0.69986 -0.0957,-1.51659 -0.4375,-2.46875 -0.34182,-0.95214 -0.77541,-1.61066 -1.3125,-1.96875 l 15.28125,0 c 3.25517,1e-5 5.22392,-1.30207 5.875,-3.90625 l -30.3125,0 c -3.58074,2e-5 -6.44532,0.73765 -8.59375,2.21875 -2.01823,1.39975 -3.23307,3.32358 -3.65625,5.78125 -0.0814,0.43946 -0.125,0.87305 -0.125,1.3125 0,1.27953 0.3944,2.37952 1,3.375 l -12.96875,0 3.0625,-8.78125 1.59375,0 c 3.09243,1e-5 5.14712,-1.30207 6.15625,-3.90625 l -6.28125,0 3.4375,-9.8125 -4.75,0 c -1.7741,3.36916 -3.46876,5.71421 -5.03125,7 -1.38347,1.13934 -3.49545,2.0801 -6.34375,2.8125 l -18.28125,0 c -3.58074,2e-5 -6.44532,0.73765 -8.59375,2.21875 -2.01823,1.39975 -3.23307,3.32358 -3.65625,5.78125 -0.0814,0.43946 -0.125,0.87305 -0.125,1.3125 0,1.27953 0.3944,2.37952 1,3.375 l -9.9375,0 3.09375,-8.75 c 0.29294,-0.78124 0.43747,-1.46027 0.4375,-2.0625 -3e-5,-1.66014 -0.80992,-2.49998 -2.4375,-2.5 -2.44143,2e-5 -4.6107,0.79624 -6.53125,2.375 l -7.4375,6.09375 7.34375,-20.75 -8.78125,0 z m 33.71875,16.8125 5.59375,0 -3.25,9.25 c -0.22788,0.0163 -0.50327,0.0312 -0.8125,0.0312 -2.60417,0 -3.90626,-0.72526 -3.90625,-2.125 -1e-5,-0.29296 0.0736,-0.58072 0.1875,-0.90625 l 2.1875,-6.25 z m 50.78125,0 5.59375,0 -3.25,9.25 c -0.22788,0.0163 -0.50327,0.0312 -0.8125,0.0312 -2.60417,0 -3.90626,-0.72526 -3.90625,-2.125 -1e-5,-0.29296 0.0736,-0.58072 0.1875,-0.90625 l 2.1875,-6.25 z"
         id="path4448"
         style="font-size:50px;font-style:normal;font-weight:normal;line-height:125%;letter-spacing:0px;word-spacing:0px;fill:#0064ff;fill-opacity:1;stroke:#ffffff;stroke-width:2;stroke-linecap:round;stroke-linejoin:round;stroke-miterlimit:4;stroke-opacity:1;stroke-dasharray:none;filter:url(#filter4440);font-family:Magneto;-inkscape-font-specification:Magneto"
         inkscape:original="M 51.34375 123.1875 L 47.53125 129.34375 L 72.5 129.34375 C 74.534476 129.34378 75.937469 129.50198 76.71875 129.84375 C 78.0208 130.41344 78.612597 131.61461 78.53125 133.4375 C 78.401008 136.26955 76.651661 138.74286 73.25 140.875 C 70.808568 142.38869 68.001279 143.50262 64.84375 144.21875 L 69.0625 132.46875 L 60.21875 132.46875 L 51.3125 157.53125 L 60.21875 157.53125 L 63.1875 149.03125 C 69.323543 147.82683 74.619111 146.07749 79.0625 143.75 C 85.71936 140.2995 89.031206 136.16148 89.03125 131.34375 C 89.031206 128.10485 87.656858 125.81709 84.90625 124.53125 C 82.969363 123.61983 80.17835 123.18753 76.5 123.1875 L 51.34375 123.1875 z M 94.0625 128.03125 L 83.59375 157.53125 L 88.625 157.53125 C 89.894526 157.53125 91.110671 157.02409 92.25 156.03125 L 101.5 148.4375 L 99.75 153.625 C 99.505845 154.3737 99.374986 155.01042 99.375 155.53125 C 99.374986 156.86589 100.28579 157.53125 102.125 157.53125 L 112.53125 157.53125 C 113.67054 157.53125 114.72588 157.30078 115.71875 156.8125 C 117.06568 156.14694 117.93829 155.09402 118.375 153.71875 C 118.81937 154.42101 119.31136 155.09788 120.0625 155.65625 C 122.12955 157.20247 125.09635 157.9388 128.9375 157.90625 C 132.24152 157.88997 134.93293 157.16862 137 155.6875 C 139.16469 154.14128 140.36586 151.99935 140.59375 149.28125 C 140.65883 148.58139 140.49802 147.76466 140.15625 146.8125 C 139.81443 145.86036 139.38084 145.20184 138.84375 144.84375 L 146.4375 144.84375 L 150.4375 144.84375 L 147.34375 153.625 C 147.16471 154.11328 147.0625 154.57683 147.0625 155 C 147.0625 156.69271 148.27865 157.53125 150.6875 157.53125 L 163.125 157.53125 C 166.36831 157.53125 168.39077 156.25935 169.1875 153.75 C 169.62942 154.43778 170.1055 155.10746 170.84375 155.65625 C 172.9108 157.20247 175.8776 157.9388 179.71875 157.90625 C 183.02277 157.88997 185.71418 157.16862 187.78125 155.6875 C 189.94594 154.14128 191.14711 151.99935 191.375 149.28125 C 191.44008 148.58139 191.27927 147.76466 190.9375 146.8125 C 190.59568 145.86036 190.16209 145.20184 189.625 144.84375 L 204.90625 144.84375 C 208.16142 144.84376 210.13017 143.54168 210.78125 140.9375 L 180.46875 140.9375 C 176.88801 140.93752 174.02343 141.67515 171.875 143.15625 C 169.85677 144.556 168.64193 146.47983 168.21875 148.9375 C 168.13737 149.37696 168.09375 149.81055 168.09375 150.25 C 168.09375 151.52953 168.48815 152.62952 169.09375 153.625 L 156.125 153.625 L 159.1875 144.84375 L 160.78125 144.84375 C 163.87368 144.84376 165.92837 143.54168 166.9375 140.9375 L 160.65625 140.9375 L 164.09375 131.125 L 159.34375 131.125 C 157.56965 134.49416 155.87499 136.83921 154.3125 138.125 C 152.92903 139.26434 150.81705 140.2051 147.96875 140.9375 L 129.6875 140.9375 C 126.10676 140.93752 123.24218 141.67515 121.09375 143.15625 C 119.07552 144.556 117.86068 146.47983 117.4375 148.9375 C 117.35612 149.37696 117.3125 149.81055 117.3125 150.25 C 117.3125 151.52953 117.7069 152.62952 118.3125 153.625 L 108.375 153.625 L 111.46875 144.875 C 111.76169 144.09376 111.90622 143.41473 111.90625 142.8125 C 111.90622 141.15236 111.09633 140.31252 109.46875 140.3125 C 107.02732 140.31252 104.85805 141.10874 102.9375 142.6875 L 95.5 148.78125 L 102.84375 128.03125 L 94.0625 128.03125 z M 127.78125 144.84375 L 133.375 144.84375 L 130.125 154.09375 C 129.89712 154.11003 129.62173 154.125 129.3125 154.125 C 126.70833 154.125 125.40624 153.39974 125.40625 152 C 125.40624 151.70704 125.47981 151.41928 125.59375 151.09375 L 127.78125 144.84375 z M 178.5625 144.84375 L 184.15625 144.84375 L 180.90625 154.09375 C 180.67837 154.11003 180.40298 154.125 180.09375 154.125 C 177.48958 154.125 176.18749 153.39974 176.1875 152 C 176.18749 151.70704 176.26106 151.41928 176.375 151.09375 L 178.5625 144.84375 z "
         inkscape:radius="0"
         sodipodi:type="inkscape:offset" />
      <text
         sodipodi:linespacing="125%"
         id="text4188"
         y="42.5"
         x="43.92857"
         style="font-size:40px;font-style:normal;font-weight:normal;line-height:125%;letter-spacing:0px;word-spacing:0px;fill:#000000;fill-opacity:1;stroke:none;font-family:Harlow Solid Italic;-inkscape-font-specification:Harlow Solid Italic"
         xml:space="preserve"><tspan
           y="42.5"
           x="43.92857"
           id="tspan4190"
           sodipodi:role="line" /></text>
      <g
         transform="translate(42.576137,29.232474)"
         id="g4196">
        <text
           xml:space="preserve"
           x="0"
           y="23.723284"
           style="font-size:40px;font-style:italic;font-weight:bold;text-align:start;text-anchor:start;fill:#000000;font-family:Harlow Solid Italic"
           id="text4198"> </text>
        <text
           xml:space="preserve"
           x="85.75"
           y="23.723284"
           style="font-size:13.75px;font-style:normal;font-weight:normal;text-align:start;text-anchor:start;fill:#000000;font-family:Calibri"
           id="text4200"> </text>
      </g>
      <text
         sodipodi:linespacing="125%"
         id="text4210"
         y="54.642857"
         x="50"
         style="font-size:40px;font-style:normal;font-weight:normal;line-height:125%;letter-spacing:0px;word-spacing:0px;fill:#000000;fill-opacity:1;stroke:none;font-family:Harlow Solid Italic;-inkscape-font-specification:Harlow Solid Italic"
         xml:space="preserve"><tspan
           y="54.642857"
           x="50"
           id="tspan4212"
           sodipodi:role="line" /></text>
      <g
         style="fill:#0064ff;fill-opacity:1;stroke:#ffffff;stroke-width:2;stroke-linecap:round;stroke-linejoin:round;stroke-miterlimit:4;stroke-opacity:1;stroke-dasharray:none;filter:url(#filter4444)"
         transform="matrix(1,0.06955847,0,1,-25.638149,79.220263)"
         id="g4305">
        <text
           xml:space="preserve"
           x="0"
           y="23.723284"
           style="font-size:50px;font-style:italic;font-weight:bold;text-align:start;text-anchor:start;fill:#0064ff;fill-opacity:1;stroke:#ffffff;stroke-width:2;stroke-linecap:round;stroke-linejoin:round;stroke-miterlimit:4;stroke-opacity:1;stroke-dasharray:none;font-family:Harlow Solid Italic"
           id="text4307"><tspan
             id="tspan4318"
             style="font-size:50px;fill:#0064ff;fill-opacity:1;stroke:#ffffff;stroke-width:2;stroke-linecap:round;stroke-linejoin:round;stroke-miterlimit:4;stroke-opacity:1;stroke-dasharray:none">Mondo</tspan></text>
        <text
           xml:space="preserve"
           x="85.75"
           y="23.723284"
           style="font-size:13.75px;font-style:normal;font-weight:normal;text-align:start;text-anchor:start;fill:#0064ff;fill-opacity:1;stroke:#ffffff;stroke-width:2;stroke-linecap:round;stroke-linejoin:round;stroke-miterlimit:4;stroke-opacity:1;stroke-dasharray:none;font-family:Calibri"
           id="text4309"> </text>
      </g>
    </g>
    <g
       transform="matrix(0.31195159,-0.18010533,0.18010533,0.31195159,-84.569546,95.628563)"
       id="g3877"
       style="filter:url(#filter4652)">
      <g
         id="g4633">
        <path
           d="m 522.52335,192.38587 c -9.88502,-2.60069 -16.07259,-12.42389 -27.26641,-12.08436 -46.84584,-9.51992 -93.51701,-20.07149 -140.65392,-28.05282 -10.58754,-2.2412 -23.58816,-1.69626 -31.57926,-10.00606 -3.2114,-11.26978 0.47903,-23.35155 1.35289,-34.8353 4.13015,-26.013073 7.79031,-52.143881 13.02809,-77.956205 7.53551,-9.451294 20.60563,-7.909806 31.26692,-8.43349 3.73208,-8.507172 11.73789,-13.4673985 21.25762,-9.178751 9.72341,1.461981 20.54743,4.515537 22.63793,14.59746 9.33822,5.36 19.84549,4.349458 29.19899,-0.113677 9.8271,-4.564824 15.4767,-17.5082315 27.22822,-17.1638245 16.82706,1.6722555 33.66702,4.9261725 49.79159,10.0152935 13.67391,6.160839 15.1445,23.175621 23.94257,33.84232 5.82001,10.372942 18.21924,11.374761 28.22301,15.134896 14.73445,2.9053 9.72507,18.867904 7.52465,29.009356 -6.03183,28.523062 -11.49793,57.292132 -20.31111,85.110772 -4.29505,11.19614 -17.7633,13.16955 -28.59714,11.20009 -2.36156,-0.25911 -4.72605,-0.55582 -7.04464,-1.0857 z"
           style="fill:#0064ff;fill-opacity:1;stroke:#ffffff;stroke-width:1;stroke-miterlimit:4;stroke-opacity:1;stroke-dasharray:none"
           id="path3875"
           inkscape:connector-curvature="0" />
      </g>
      <path
         inkscape:connector-curvature="0"
         id="path3873"
         d="m 461.73719,165.14563 c -11.2592,-2.42028 -22.5529,-4.70179 -33.75,-7.3963 -7.62604,-12.36229 19.65668,0.57257 15.93637,-4.52384 -17.90486,-11.18249 -28.00901,-32.80478 -25.54767,-53.723426 2.18051,-31.405339 35.84143,-55.692328 66.40546,-48.452366 28.52316,4.723368 49.43806,34.316086 44.76844,62.774042 -3.23069,24.52234 -24.72816,45.60704 -49.52419,47.53949 3.75744,2.77162 27.69925,4.10475 14.69755,10.2749 -11.051,-1.86183 -22.01317,-4.22332 -32.98596,-6.4925 z"
         style="fill:#ffffff;fill-opacity:1;stroke:#ffffff;stroke-width:1;stroke-miterlimit:4;stroke-opacity:1;stroke-dasharray:none" />
      <path
         inkscape:connector-curvature="0"
         id="path3871"
         d="m 494.8622,168.04905 c -6.4573,-3.2809 -20.61623,-1.92353 -22.63133,-7.65724 6.11519,-1.87629 -13.58505,-1.17249 -17.02972,-4.41998 -2.82299,6.79088 -18.2166,-2.43752 -26.64384,-1.43731 8.71755,4.18741 20.19381,4.83325 29.9397,7.50549 12.43696,2.22898 25.01318,6.07611 37.49356,6.64452 l -1.1284,-0.63548 3e-5,0 z"
         style="fill:#0064ff;fill-opacity:1;stroke:#0064ff;stroke-width:1;stroke-miterlimit:4;stroke-opacity:1;stroke-dasharray:none" />
      <path
         inkscape:connector-curvature="0"
         id="path3867"
         d="m 461.38644,148.4599 c -26.01668,-6.48482 -39.76452,-39.23111 -27.2438,-62.667324 10.88468,-22.103557 41.23999,-31.679092 62.39398,-18.321137 13.51749,8.068343 23.17308,23.696927 21.28801,39.732541 1.72776,25.99028 -25.48213,46.41561 -50.1477,42.49076 -2.12187,-0.26649 -4.22525,-0.67977 -6.29049,-1.23484 z"
         style="fill:#0064ff;fill-opacity:1;stroke:#0064ff;stroke-width:1;stroke-miterlimit:4;stroke-opacity:1;stroke-dasharray:none" />
      <path
         inkscape:connector-curvature="0"
         id="path3865"
         d="m 485.55381,146.08553 c 18.088,-5.67329 32.46938,-23.9079 30.26019,-43.3367 -0.98336,-18.473713 -16.40246,-34.948271 -34.5048,-38.264029 -28.03157,-6.302613 -57.13229,24.233896 -47.94121,51.966529 5.89984,21.81752 30.16667,36.8665 52.18582,29.6342 z"
         style="fill:#ffffff;fill-opacity:1;stroke:#0064ff;stroke-width:1;stroke-miterlimit:4;stroke-opacity:1;stroke-dasharray:none" />
      <path
         inkscape:connector-curvature="0"
         id="path3863"
         d="m 462.78138,129.21599 c -18.76925,-7.76274 -19.11194,-38.637223 -0.23991,-46.431156 15.14441,-7.981678 36.9009,3.023974 36.70849,20.861316 1.72914,13.04197 -8.25326,27.03734 -21.92075,27.09137 -4.85417,0.14637 -10.03043,0.69926 -14.54783,-1.52153 z"
         style="fill:#0064ff;fill-opacity:1;stroke:#0064ff;stroke-width:1;stroke-miterlimit:4;stroke-opacity:1;stroke-dasharray:none" />
      <path
         inkscape:connector-curvature="0"
         id="path3861"
         d="m 485.97994,125.4959 c 13.17037,-7.25084 15.08623,-27.457531 3.27533,-36.875961 -12.09432,-12.533271 -35.342,-3.996443 -38.15838,12.688551 -4.25459,17.11518 15.26033,33.10827 31.21736,26.03061 1.27344,-0.50389 2.50099,-1.12295 3.66569,-1.8432 z"
         style="fill:#ffffff;fill-opacity:1;stroke:#0064ff;stroke-width:1;stroke-miterlimit:4;stroke-opacity:1;stroke-dasharray:none" />
      <path
         inkscape:connector-curvature="0"
         id="path3859"
         d="m 473.6122,123.35726 c -6.28232,-4.60189 12.55742,-3.24968 12.81481,-10.53513 8.04669,-12.49983 -9.95419,-28.551766 -20.93821,-18.005811 -3.31916,3.324474 -9.53246,13.781171 -7.08372,2.398275 2.41998,-13.501297 18.70172,-9.722826 27.6478,-5.944424 10.83251,5.706836 4.54626,19.05128 2.2287,27.94346 -3.02629,4.73691 -9.69293,4.99294 -14.66938,4.14363 z"
         style="fill:#0064ff;fill-opacity:1;stroke:#0064ff;stroke-width:1;stroke-miterlimit:4;stroke-opacity:1;stroke-dasharray:none" />
      <path
         inkscape:connector-curvature="0"
         id="path3857"
         d="m 489.96637,105.33382 c -1.98686,1.82063 1.35419,3.83163 0,0 z"
         style="fill:none;stroke:#ffffff;stroke-width:1;stroke-miterlimit:4;stroke-opacity:1;stroke-dasharray:none" />
      <path
         inkscape:connector-curvature="0"
         id="path3855"
         d="m 473.5497,89.379878 c -6.14873,-1.003062 1.85756,1.934554 0,0 z"
         style="fill:none;stroke:#ffffff;stroke-width:1;stroke-miterlimit:4;stroke-opacity:1;stroke-dasharray:none" />
      <path
         inkscape:connector-curvature="0"
         id="path3853"
         d="m 463.67511,120.96051 c -10.447,1.18755 -7.38128,-26.546169 -3.58678,-11.67869 -0.98799,5.30213 18.22335,15.12904 3.58678,11.67869 z"
         style="fill:#0064ff;fill-opacity:1;stroke:#0064ff;stroke-width:1;stroke-miterlimit:4;stroke-opacity:1;stroke-dasharray:none" />
      <path
         inkscape:connector-curvature="0"
         id="path3851"
         d="m 457.96637,106.33382 c -1.98686,1.82063 1.35419,3.83163 0,0 z"
         style="fill:none;stroke:#ffffff;stroke-width:1;stroke-miterlimit:4;stroke-opacity:1;stroke-dasharray:none" />
      <path
         inkscape:connector-curvature="0"
         id="path3849"
         d="m 444.3622,150.68543 c -6.02722,-7.2088 -1.92276,0.67135 0,0 z"
         style="fill:none;stroke:#0064ff;stroke-width:1;stroke-miterlimit:4;stroke-opacity:1;stroke-dasharray:none" />
      <path
         inkscape:connector-curvature="0"
         id="path3847"
         d="m 517.3622,138.13131 c -3.6837,2.31463 -15.8678,15.77918 -6.60483,7.01258 2.27258,-2.26618 4.64352,-4.46012 6.60483,-7.01258 z"
         style="fill:none;stroke:#0064ff;stroke-width:1;stroke-miterlimit:4;stroke-opacity:1;stroke-dasharray:none" />
      <path
         inkscape:connector-curvature="0"
         id="path3845"
         d="m 440.3622,147.7712 c -0.90655,-1.1829 -12.91124,-12.64203 -7.30929,-6.87412 2.3728,2.18599 4.6869,5.90828 7.30929,6.87412 z"
         style="fill:none;stroke:#0064ff;stroke-width:1;stroke-miterlimit:4;stroke-opacity:1;stroke-dasharray:none" />
      <path
         inkscape:connector-curvature="0"
         id="path3843"
         d="m 528.06793,103.81299 c -1.31895,0.32051 0.39944,9.61938 0,0 z"
         style="fill:#0064ff;fill-opacity:1;stroke:#0064ff;stroke-width:1;stroke-miterlimit:4;stroke-opacity:1;stroke-dasharray:none" />
      <path
         inkscape:connector-curvature="0"
         id="path3841"
         d="m 431.8622,73.062992 c 4.57087,-6.780062 -6.54199,6.488184 0,0 z"
         style="fill:none;stroke:#0064ff;stroke-width:1;stroke-miterlimit:4;stroke-opacity:1;stroke-dasharray:none" />
      <path
         inkscape:connector-curvature="0"
         id="path3839"
         d="m 515.3622,70.759159 c -2.85883,-3.12909 -10.83699,-10.433525 -4.05383,-3.446167 1.17304,0.717112 2.74395,3.988084 4.05383,3.446167 z"
         style="fill:none;stroke:#0064ff;stroke-width:1;stroke-miterlimit:4;stroke-opacity:1;stroke-dasharray:none" />
      <path
         inkscape:connector-curvature="0"
         id="path3837-1"
         d="m 436.3622,67.562992 c 5.92928,-7.557615 -8.30559,7.853473 0,0 z"
         style="fill:none;stroke:#0064ff;stroke-width:1;stroke-miterlimit:4;stroke-opacity:1;stroke-dasharray:none" />
      <path
         inkscape:connector-curvature="0"
         id="path3835-7"
         d="m 441.3622,63.562992 c 5.63311,-6.623999 -6.94534,6.185353 0,0 z"
         style="fill:none;stroke:#0064ff;stroke-width:1;stroke-miterlimit:4;stroke-opacity:1;stroke-dasharray:none" />
      <path
         inkscape:connector-curvature="0"
         id="path3833"
         d="m 507.3622,63.685437 c -6.02719,-7.20875 -1.92279,0.671305 0,0 z"
         style="fill:none;stroke:#0064ff;stroke-width:1;stroke-miterlimit:4;stroke-opacity:1;stroke-dasharray:none" />
      <path
         inkscape:connector-curvature="0"
         id="path3831"
         d="m 536.69474,111.44776 c -5.59243,-10.53937 16.01414,-9.8534 8.51528,0.91134 -2.31034,2.39035 -6.87751,2.21631 -8.51528,-0.91134 z"
         style="fill:#ffffff;fill-opacity:1;stroke:#ffffff;stroke-width:1;stroke-miterlimit:4;stroke-opacity:1;stroke-dasharray:none" />
      <path
         inkscape:connector-curvature="0"
         id="path3829"
         d="m 544.3622,108.65025 c -6.51867,-11.674022 -8.27651,10.37967 0,0 z"
         style="fill:#0064ff;fill-opacity:1;stroke:#0064ff;stroke-width:1;stroke-miterlimit:4;stroke-opacity:1;stroke-dasharray:none" />
      <path
         inkscape:connector-curvature="0"
         id="path3827"
         d="m 539.0611,97.282772 c -8.89674,-11.500908 16.65129,-11.343304 8.37725,-0.22103 -2.11413,2.29134 -6.21505,2.64186 -8.37725,0.22103 z"
         style="fill:#ffffff;fill-opacity:1;stroke:#ffffff;stroke-width:1;stroke-miterlimit:4;stroke-opacity:1;stroke-dasharray:none" />
      <path
         inkscape:connector-curvature="0"
         id="path3825"
         d="m 545.35163,95.575727 c 2.91456,-10.696123 -12.06076,-0.14347 -1.07111,1.073111 l 1.07111,-1.073111 z"
         style="fill:#0064ff;fill-opacity:1;stroke:#0064ff;stroke-width:1;stroke-miterlimit:4;stroke-opacity:1;stroke-dasharray:none" />
      <path
         inkscape:connector-curvature="0"
         id="path3823"
         d="m 557.8622,85.429897 c -5.27922,-3.014656 -22.0955,-0.732465 -20.49906,-8.127084 11.48483,1.319778 22.98947,3.84704 34.13354,6.923197 3.83992,7.784979 -10.85314,0.639743 -13.63448,1.203887 z"
         style="fill:#ffffff;fill-opacity:1;stroke:#ffffff;stroke-width:1;stroke-miterlimit:4;stroke-opacity:1;stroke-dasharray:none" />
      <path
         inkscape:connector-curvature="0"
         id="path3821"
         d="m 392.8622,51.109544 c -14.08132,-3.230487 -28.43967,-5.482112 -42.34711,-9.331114 -0.95971,-8.045984 16.22075,1.037102 22.57911,0.694921 19.18873,4.438264 38.94602,7.086638 57.64118,13.274021 -4.89128,5.075932 -19.2515,-2.135972 -27.42607,-2.44532 -3.48358,-0.725074 -6.96556,-1.457761 -10.44711,-2.192508 z"
         style="fill:#ffffff;fill-opacity:1;stroke:#ffffff;stroke-width:1;stroke-miterlimit:4;stroke-opacity:1;stroke-dasharray:none" />
      <path
         inkscape:connector-curvature="0"
         id="path3819"
         d="m 488.3622,35.09695 c -7.55663,-1.705021 -29.97968,-3.702782 -18.36961,-14.65604 14.08708,0.930408 28.11194,4.189356 41.58225,8.397179 8.82359,10.577843 -9.84959,11.518706 -16.33234,7.738327 -2.29471,-0.487175 -4.58758,-0.98332 -6.8803,-1.479466 z"
         style="fill:#ffffff;fill-opacity:1;stroke:#ffffff;stroke-width:1;stroke-miterlimit:4;stroke-opacity:1;stroke-dasharray:none" />
    </g>
  </g>
</svg>
